<svg xmlns="http://www.w3.org/2000/svg" width="17.266" height="12.949" viewBox="0 0 17.266 12.949">
  <g id="mail-black-envelope-symbol" transform="translate(5 -59.651)">
    <path id="Контур_1" data-name="Контур 1" d="M17.266,71.442a2.139,2.139,0,0,1-.277,1.038l-5.451-6.1,5.392-4.718a2.142,2.142,0,0,1,.336,1.146ZM8.633,67.488l7.5-6.565a2.131,2.131,0,0,0-1.029-.272H2.158a2.124,2.124,0,0,0-1.028.272Zm2.092-.4L8.988,68.612a.541.541,0,0,1-.71,0L6.541,67.091,1.02,73.268a2.132,2.132,0,0,0,1.138.332H15.107a2.132,2.132,0,0,0,1.138-.332ZM.336,61.663A2.143,2.143,0,0,0,0,62.809v8.633A2.132,2.132,0,0,0,.277,72.48l5.451-6.1Z" transform="translate(-5 -1)" fill="#fff"/>
  </g>
</svg>
