<svg xmlns="http://www.w3.org/2000/svg" width="13.115" height="13.107" viewBox="0 0 13.115 13.107">
  <g id="phone-receiver" transform="translate(590 -109.859)">
    <g id="Сгруппировать_1" data-name="Сгруппировать 1" transform="translate(0 0.188)">
      <path id="Контур_2" data-name="Контур 2" d="M13.109,10.532a.634.634,0,0,1-.194.555L11.068,12.92a1.039,1.039,0,0,1-.326.236,1.348,1.348,0,0,1-.4.125l-.083.007q-.069.007-.18.007a6.4,6.4,0,0,1-.854-.09,6.485,6.485,0,0,1-1.444-.444A12.12,12.12,0,0,1,5.847,11.7a14.44,14.44,0,0,1-2.3-1.944A15.214,15.214,0,0,1,1.932,7.921,13.058,13.058,0,0,1,.9,6.3,8.712,8.712,0,0,1,.322,4.957,7.145,7.145,0,0,1,.058,3.916,3.439,3.439,0,0,1,0,3.229q.014-.25.014-.278a1.35,1.35,0,0,1,.125-.4,1.04,1.04,0,0,1,.236-.326L2.224.382A.612.612,0,0,1,2.668.188a.518.518,0,0,1,.319.1.965.965,0,0,1,.236.257L4.709,3.367a.676.676,0,0,1,.069.486.865.865,0,0,1-.236.444l-.68.68a.232.232,0,0,0-.049.09.343.343,0,0,0-.021.1,2.507,2.507,0,0,0,.25.666,6.118,6.118,0,0,0,.514.812,9.018,9.018,0,0,0,.986,1.1,9.2,9.2,0,0,0,1.111.993,6.414,6.414,0,0,0,.812.521,2.159,2.159,0,0,0,.5.2l.174.035a.331.331,0,0,0,.09-.021.232.232,0,0,0,.09-.049l.791-.805a.851.851,0,0,1,.583-.222.725.725,0,0,1,.375.083h.014l2.68,1.583A.7.7,0,0,1,13.109,10.532Z" transform="translate(-590 109.483)" fill="#fff"/>
    </g>
  </g>
</svg>
